# xmcd CD database file
#
# Track frame offsets:
#	150
#	16883
#	33764
#	46977
#	58494
#	79397
#	90100
#	102273
#	120880
#	134557
#	155250
#	171966
#	195095
#
# Disc length: 2865 seconds
#
# Revision: 1
# Processed by: cddbd v1.5.2PL0 Copyright (c) Steve Scherf et al.
# Submitted via: CDex 1.51
#
DISCID=970b2f0d
DTITLE=Magic Slim and The Teardrops - Midnight Blues
DYEAR=2008
DGENRE=Blues
TTITLE0=Magic Slim and The Teardrops - Let Me Love You
TTITLE1=Magic Slim and The Teardrops - You Can't Lose What You Ain't Never Had
TTITLE2=Magic Slim and The Teardrops - Give Me Back My Wig
TTITLE3=Magic Slim and The Teardrops - Lonely Man
TTITLE4=Magic Slim and The Teardrops - Spider In My Stew
TTITLE5=Magic Slim and The Teardrops - Going Down the Road Feeling Bad
TTITLE6=Magic Slim and The Teardrops - Full Load Boogie
TTITLE7=Magic Slim and The Teardrops - Crosseyed Cat
TTITLE8=Magic Slim and The Teardrops - House Cat Blues
TTITLE9=Magic Slim and The Teardrops - Carla
TTITLE10=Magic Slim and The Teardrops - Cryin' Won't Let You Stay
TTITLE11=Magic Slim and The Teardrops - What Is That You Got
TTITLE12=Magic Slim and The Teardrops - Loving You Is the Best Thing That Happened to Me
EXTD=YEAR: 2008
EXTT0=
EXTT1=
EXTT2=
EXTT3=
EXTT4=
EXTT5=
EXTT6=
EXTT7=
EXTT8=
EXTT9=
EXTT10=
EXTT11=
EXTT12=
PLAYORDER=
